<?xml version="1.0" encoding="UTF-8"?>
<svg version="1.1" xmlns="http://www.w3.org/2000/svg" width="798" height="313">
<path d="M0 0 C1.06125783 -0.00376113 2.12251566 -0.00752226 3.21593282 -0.01139736 C6.79008944 -0.0203766 10.36385092 -0.0078726 13.93799305 0.00444412 C16.51903485 0.00242071 19.1000759 -0.00091755 21.68111449 -0.00546145 C27.3020181 -0.01322238 32.92282938 -0.009823 38.54372692 0.00086212 C46.90194695 0.0167069 55.26010254 0.01538492 63.61833304 0.01056984 C77.678695 0.00297735 91.73901771 0.00949875 105.79937267 0.02418137 C119.72473107 0.03870603 133.65007227 0.04746731 147.5754385 0.04836655 C148.44105742 0.04842764 149.30667635 0.04848873 150.19852615 0.04855168 C153.7121466 0.04878119 157.22576705 0.04896837 160.7393875 0.04909982 C192.76823198 0.05031152 224.7970524 0.06601562 256.82588673 0.0906868 C287.07849279 0.11398506 317.33108426 0.12815406 347.58369923 0.13170242 C348.51584582 0.13181394 349.44799242 0.13192545 350.40838589 0.13204035 C354.1663593 0.1324892 357.92433272 0.13293117 361.68230614 0.13337278 C363.55497747 0.13359315 365.4276488 0.13381445 367.30032014 0.13403665 C369.16833049 0.13425801 371.03634084 0.13447678 372.9043512 0.13469296 C402.62720136 0.13820547 432.35004877 0.14966614 462.07289618 0.16249929 C470.78091773 0.166221 479.4889391 0.16948507 488.19696116 0.17174816 C506.51195602 0.17655265 524.82694213 0.18361545 543.1419309 0.19989583 C550.71886757 0.20655797 558.29579712 0.21169493 565.87273693 0.21235657 C572.79879621 0.2129637 579.7248351 0.21851197 586.6508883 0.22767606 C589.16622236 0.23019688 591.68155877 0.23101226 594.19689389 0.23001727 C597.59661823 0.22893152 600.99627932 0.23390634 604.39599609 0.24050903 C605.38911587 0.23873956 606.38223564 0.23697009 607.40544996 0.235147 C608.30654024 0.23816297 609.20763052 0.24117894 610.13602656 0.2442863 C610.9141193 0.24480154 611.69221204 0.24531678 612.49388335 0.24584763 C614.50923634 0.3719368 614.50923634 0.3719368 617.50923634 1.3719368 C617.50923634 2.0319368 617.50923634 2.6919368 617.50923634 3.3719368 C618.09060352 3.65424149 618.67197071 3.93654617 619.27095509 4.22740555 C625.3470389 7.33437336 631.11085778 11.21068666 636.50923634 15.3719368 C636.50923634 16.0319368 636.50923634 16.6919368 636.50923634 17.3719368 C637.11122852 17.6400618 637.71322071 17.9081868 638.33345509 18.1844368 C650.65229239 24.90782377 658.84811047 44.7117879 662.88423634 57.1844368 C664.34463621 62.26787125 665.0779533 67.11028382 665.50923634 72.3719368 C665.83923634 73.0319368 666.16923634 73.6919368 666.50923634 74.3719368 C666.60736832 76.86275755 666.64829181 79.31927469 666.63423634 81.8094368 C666.63810352 82.49070633 666.64197071 83.17197586 666.64595509 83.87388992 C666.63987374 86.97841726 666.49813945 89.40522745 665.50923634 92.3719368 C665.32072422 93.77147017 665.16960511 95.17626408 665.04439259 96.5828743 C664.92741016 97.83390945 664.92741016 97.83390945 664.80806446 99.11021805 C664.65401676 100.82893208 664.50035221 102.5476805 664.34712696 104.26646805 C663.79484845 110.16641901 662.97500974 115.98630825 662.04658985 121.83824539 C661.4657367 125.65799482 660.95768334 129.48427124 660.47408009 133.3172493 C660.38928898 133.98775314 660.30449787 134.65825699 660.21713734 135.34907913 C659.87016549 138.10410774 659.5258699 140.85945976 659.18379688 143.61510086 C658.92900259 145.66198788 658.67051222 147.70838223 658.41158009 149.7547493 C658.26196827 150.95502762 658.11235645 152.15530594 657.95821095 153.39195633 C657.50923634 156.3719368 657.50923634 156.3719368 656.50923634 159.3719368 C656.18555407 161.97610773 655.89734853 164.57411642 655.63423634 167.1844368 C654.78259376 175.24368235 653.73843851 183.26596203 652.6195879 191.29210281 C651.63998253 198.33566482 650.76061093 205.38643594 649.93892384 212.4500618 C649.50923634 215.3719368 649.50923634 215.3719368 648.50923634 217.3719368 C648.31322964 218.84622451 648.16549823 220.32711554 648.04439259 221.8094368 C647.9664043 222.70533524 647.88841602 223.60123367 647.80806446 224.52428055 C647.65311477 226.3913603 647.49942431 228.25854508 647.34712696 230.12584305 C646.80490306 236.32394717 645.83991097 242.29657338 644.50923634 248.3719368 C644.27462696 249.52822586 644.04001759 250.68451492 643.79829884 251.87584305 C640.89504642 265.24788213 635.32740322 276.50539498 626.03658009 286.6297493 C624.20917572 288.71420542 622.92310646 290.99406431 621.50923634 293.3719368 C618.41490748 296.79198449 615.44027562 299.03203246 611.50923634 301.3719368 C610.3534884 302.40259202 609.20836949 303.44523887 608.07173634 304.4969368 C604.99940876 307.21891122 602.69815631 308.16759924 598.50923634 308.3719368 C598.50923634 309.0319368 598.50923634 309.6919368 598.50923634 310.3719368 C596.52923634 310.7019368 594.54923634 311.0319368 592.50923634 311.3719368 C592.50923634 312.0319368 592.50923634 312.6919368 592.50923634 313.3719368 C364.80923634 313.3719368 137.10923634 313.3719368 -97.49076366 313.3719368 C-96.49076366 298.3719368 -96.49076366 298.3719368 -95.49076366 296.3719368 C-95.15138499 294.16920495 -94.85869576 291.95921084 -94.58841991 289.7469368 C-94.50579403 289.08540604 -94.42316814 288.42387527 -94.33803844 287.74229813 C-93.98513243 284.91589443 -93.64069686 282.08847462 -93.2956953 279.26109695 C-92.41981599 272.11879794 -91.49095315 265.04778529 -89.9885664 258.0047493 C-88.85525905 252.01083738 -88.228909 245.92559359 -87.49076366 239.8719368 C-86.54455659 232.11192998 -85.59117431 224.39823568 -83.9639082 216.74547195 C-83.07743873 212.29848735 -82.5201523 207.8034061 -81.92826366 203.3094368 C-81.80258007 202.38066727 -81.67689648 201.45189774 -81.54740429 200.49498367 C-80.9590468 196.10540554 -80.41536337 191.71913096 -79.96341991 187.31334305 C-79.49076366 183.3719368 -79.49076366 183.3719368 -78.49076366 181.3719368 C-78.08913377 178.73556347 -77.7315983 176.10760037 -77.40482616 173.46178055 C-77.30237591 172.66147919 -77.19992565 171.86117783 -77.09437084 171.03662491 C-76.65680282 167.6184121 -76.22740152 164.19919051 -75.79838085 160.77989578 C-74.59321347 151.21411288 -73.2628173 141.71032955 -71.52825451 132.22520828 C-70.47677066 126.4383209 -69.71140627 120.65187753 -69.05326366 114.8094368 C-67.93338786 105.34028175 -66.50527929 95.95490905 -64.84842968 86.56505203 C-64.06583702 82.08101815 -63.38736999 77.64579857 -62.98685741 73.11021805 C-62.38689338 66.59816205 -60.46385595 60.58612423 -58.49076366 54.3719368 C-58.1800996 53.38580399 -57.86943554 52.39967117 -57.54935741 51.38365555 C-55.3299158 44.81819437 -52.32139696 39.13733158 -48.49076366 33.3719368 C-48.08599804 32.74158524 -47.68123241 32.11123367 -47.26420116 31.46178055 C-43.84356464 26.51969526 -39.64243467 22.31931937 -35.42826366 18.0594368 C-34.82627148 17.44809891 -34.22427929 16.83676102 -33.60404491 16.20689774 C-30.42688331 13.05248013 -27.45525905 10.52389748 -23.49076366 8.3719368 C-21.78114843 7.16080549 -20.10671718 5.91212354 -18.43216991 4.6531868 C-12.11557972 0.48449146 -7.39666866 -0.05697124 0 0 Z M76.70454884 114.4344368 C71.49610012 121.21289637 71.30062623 126.29780941 71.25923634 134.6844368 C71.23861134 135.71762039 71.21798634 136.75080399 71.19673634 137.81529617 C71.15982447 145.00849633 72.03719548 149.41922133 76.75923634 155.0594368 C83.02094796 160.32496703 91.19272625 161.77799908 98.94673634 163.8094368 C100.09585499 164.11510574 101.24497364 164.42077469 102.42891407 164.73570633 C110.20632649 166.79563717 118.00110521 168.77269626 125.82564259 170.6453743 C128.50923634 171.3719368 128.50923634 171.3719368 129.50923634 172.3719368 C129.66078603 174.51403339 129.73101379 176.66217141 129.75923634 178.8094368 C129.78501759 179.98377274 129.81079884 181.15810867 129.83736134 182.36803055 C129.72908009 183.35931961 129.62079884 184.35060867 129.50923634 185.3719368 C128.51923634 186.0319368 127.52923634 186.6919368 126.50923634 187.3719368 C126.50923634 188.0319368 126.50923634 188.6919368 126.50923634 189.3719368 C122.08050273 189.62059162 117.65553168 189.80120423 113.22188282 189.9212532 C111.71693101 189.97131599 110.21246027 190.03939903 108.70918751 190.12633133 C96.17501913 190.83259869 96.17501913 190.83259869 91.91988087 187.10142899 C90.16066325 184.58826097 88.74373325 182.17603094 87.50923634 179.3719368 C84.88350572 180.01491183 82.2586633 180.66118091 79.63423634 181.3094368 C78.88786915 181.49183914 78.14150196 181.67424149 77.37251759 181.86217117 C73.33884508 182.82403372 73.33884508 182.82403372 69.50923634 184.3719368 C69.72748645 192.88369112 77.0506754 199.09551728 82.63814259 204.8641243 C88.05777959 209.23151445 92.87652558 209.83904194 99.56392384 209.8406868 C100.42430256 209.84830032 101.28468128 209.85591385 102.17113209 209.86375809 C103.98481322 209.87452555 105.7985562 209.87742587 107.61226368 209.87291336 C110.36935151 209.87194204 113.12364415 209.91357833 115.88033009 209.9578743 C117.64985559 209.96308297 119.41939067 209.96576946 121.18892384 209.9656868 C122.41118168 209.99027969 122.41118168 209.99027969 123.6581316 210.01536942 C132.00095202 209.91594893 137.54075921 205.76749775 143.32173634 199.9969368 C144.4142168 198.93346024 144.4142168 198.93346024 145.52876759 197.8484993 C150.67359485 191.41492832 151.03088374 185.47400502 151.00923634 177.4969368 C151.03759571 176.55463211 151.06595509 175.61232742 151.09517384 174.64146805 C151.11390865 167.86883335 149.77304362 162.73629609 145.50923634 157.3719368 C141.42712314 153.37899936 137.44826298 152.21275234 132.06001759 150.89928055 C131.24735935 150.69009491 130.43470112 150.48090927 129.59741688 150.26538467 C127.00839796 149.60143783 124.41541817 148.95490139 121.82173634 148.3094368 C118.42102627 147.44735248 115.02188118 146.57915671 111.62251759 145.71178055 C110.81388264 145.50652756 110.00524769 145.30127457 109.17210865 145.08980179 C93.14351 141.00621046 93.14351 141.00621046 91.50923634 139.3719368 C90.95504104 134.46594568 90.76803912 130.58255892 93.38423634 126.3094368 C98.08118632 122.02692358 103.69154161 123.07184661 109.75923634 122.9969368 C110.89232227 122.95955399 112.02540821 122.92217117 113.19283009 122.88365555 C122.57321332 122.78468316 122.57321332 122.78468316 126.11861134 125.5828743 C128.26618795 128.08838034 130.00184775 130.44090344 131.50923634 133.3719368 C133.92744316 132.92077881 136.34356497 132.46131725 138.75923634 131.9969368 C139.4411504 131.87060867 140.12306446 131.74428055 140.82564259 131.6141243 C144.33408609 130.93287313 147.41963307 130.20340265 150.50923634 128.3719368 C148.34105532 119.21739474 142.11187437 112.31450087 134.81783009 106.7469368 C127.75785533 102.54201106 120.27658242 103.03302973 112.34200001 103.05626297 C110.0814996 103.05942315 107.82230978 103.0359284 105.56197071 103.01060867 C104.1081963 103.00833516 102.65441841 103.00763242 101.20064259 103.00865555 C99.89296925 103.00567459 98.58529591 103.00269363 97.2379961 102.99962234 C89.05744242 103.81644578 82.06966863 108.30287132 76.70454884 114.4344368 Z M260.57173634 108.8719368 C259.7789629 109.4803743 258.98618946 110.0888118 258.16939259 110.7156868 C250.85703032 118.01731138 247.71796014 123.67549545 247.56226063 134.15867996 C247.57811213 135.51103566 247.59563473 136.86337266 247.61470509 138.2156868 C247.61252302 139.63475923 247.60811089 141.05382978 247.60159779 142.47288895 C247.59582519 145.43183947 247.61455185 148.3892948 247.65157032 151.34801102 C247.69705216 155.11425299 247.68444779 158.87759956 247.65376282 162.64390182 C247.63584669 165.56974034 247.64728749 168.49491671 247.66740322 171.42071915 C247.67385541 172.80798408 247.67190993 174.19531763 247.66089916 175.58255386 C247.60213997 186.28788093 249.71247327 193.00755677 256.85298634 200.99303055 C257.56454884 201.59244461 258.27611134 202.19185867 259.00923634 202.8094368 C260.07658009 203.7356282 260.07658009 203.7356282 261.16548634 204.68053055 C266.86093176 208.79074366 271.28481814 209.83144134 278.12642384 209.80553055 C279.35040379 209.81339333 279.35040379 209.81339333 280.5991106 209.82141495 C282.31865271 209.8278136 284.03823871 209.82652618 285.75777149 209.81798172 C288.36974186 209.80948395 290.97951351 209.83824104 293.59126759 209.86998367 C295.26965235 209.87159641 296.94804095 209.87101677 298.62642384 209.86803055 C299.39751484 209.87926453 300.16860584 209.8904985 300.96306324 209.90207291 C309.22605104 209.79743902 315.06382605 206.39081325 320.82173634 200.5594368 C321.64286915 199.74861649 322.46400196 198.93779617 323.31001759 198.10240555 C329.36978452 190.57882281 328.99827013 183.10526981 329.01314259 173.7859993 C329.02279965 172.3602456 329.03289329 170.93449479 329.04340076 169.5087471 C329.06130205 166.5281778 329.06692798 163.54786851 329.06514454 160.5672493 C329.06483986 156.76856399 329.10580183 152.97156337 329.15746117 149.1732769 C329.19099794 146.23047265 329.19689693 143.28806846 329.19531536 140.34509277 C329.19882901 138.94576457 329.21194882 137.54642302 329.23531246 136.14728546 C329.37156172 127.14659377 328.58466859 121.20279404 322.50923634 114.3719368 C321.91844791 113.69692123 321.32765949 113.02190567 320.71896839 112.32643509 C316.13408028 107.21422106 310.42125751 103.2995379 303.39156055 102.88609695 C301.94904671 102.87343078 300.50621179 102.88250221 299.06392384 102.9109993 C297.90366184 102.91237396 297.90366184 102.91237396 296.71996021 102.9137764 C295.09806077 102.91977471 293.47617042 102.93540599 291.85445118 102.9603157 C289.3834923 102.99694783 286.91403305 103.00133346 284.44283009 103.00084305 C282.85818182 103.01067216 281.27354361 103.02232826 279.68892384 103.0359993 C278.59183598 103.03933777 278.59183598 103.03933777 277.47258472 103.04274368 C270.69349377 103.16729752 265.8742399 104.6780604 260.57173634 108.8719368 Z M159.50923634 104.3719368 C159.48239646 107.35116273 159.46247597 110.33014975 159.44673634 113.3094368 C159.43835743 114.15957352 159.42997852 115.00971024 159.42134571 115.88560867 C159.41812305 116.69449539 159.4149004 117.50338211 159.41158009 118.33678055 C159.40634327 119.08564529 159.40110645 119.83451004 159.39571095 120.60606766 C159.31581881 122.39861419 159.31581881 122.39861419 160.50923634 123.3719368 C169.74923634 123.3719368 178.98923634 123.3719368 188.50923634 123.3719368 C188.50923634 151.4219368 188.50923634 179.4719368 188.50923634 208.3719368 C195.10923634 208.3719368 201.70923634 208.3719368 208.50923634 208.3719368 C208.83923634 180.6519368 209.16923634 152.9319368 209.50923634 124.3719368 C218.41923634 124.0419368 227.32923634 123.7119368 236.50923634 123.3719368 C236.78767384 118.9478743 236.78767384 118.9478743 237.07173634 114.4344368 C237.16370289 113.03850296 237.16370289 113.03850296 237.25752735 111.61436844 C237.30063038 110.88596756 237.34373341 110.15756668 237.38814259 109.40709305 C237.43527393 108.6582283 237.48240528 107.90936356 237.53096485 107.13780594 C237.71446173 105.34437781 237.71446173 105.34437781 236.50923634 104.3719368 C234.10575348 104.27696972 231.73112652 104.24634818 229.32735157 104.25841141 C228.57618061 104.25826538 227.82500965 104.25811935 227.05107594 104.2579689 C224.55663174 104.25866817 222.06226131 104.26646115 219.56783009 104.27428055 C217.84290069 104.27614468 216.11797077 104.27756861 214.39304066 104.27856827 C209.8441113 104.28239382 205.29521367 104.29222442 200.74629688 104.30327225 C196.10803628 104.31348556 191.46977056 104.31806572 186.83150196 104.32310867 C177.72406612 104.33384666 168.61665386 104.35092353 159.50923634 104.3719368 Z M344.50923634 104.3719368 C344.50923634 138.6919368 344.50923634 173.0119368 344.50923634 208.3719368 C350.77923634 208.7019368 357.04923634 209.0319368 363.50923634 209.3719368 C365.61593093 207.26524221 364.76816123 202.65937391 364.82564259 199.74303055 C364.84642368 198.87879974 364.86720478 198.01456894 364.88861561 197.12414932 C364.95420747 194.35266235 365.01304051 191.58107758 365.07173634 188.8094368 C365.11491241 186.93507757 365.1585264 185.06072837 365.20259571 183.18638992 C365.30989861 178.58167343 365.41113848 173.97685822 365.50923634 169.3719368 C368.27935204 169.29103017 371.04710905 169.23149074 373.81783009 169.1844368 C374.60299 169.15930008 375.38814991 169.13416336 376.19710255 169.10826492 C376.95422535 169.09859695 377.71134815 169.08892899 378.49141407 169.07896805 C379.18758335 169.0632576 379.88375263 169.04754715 380.60101795 169.03136063 C383.09853421 169.47711387 383.97730547 170.44096428 385.57173634 172.3719368 C386.25858644 174.02212327 386.89688458 175.69267988 387.50923634 177.3719368 C389.10619643 180.59765487 390.73609141 183.80236841 392.38985157 186.99913406 C394.18213688 190.52023559 395.75841049 193.96375311 397.02876759 197.7078743 C399.22652162 203.74896975 399.22652162 203.74896975 403.50923634 208.3719368 C410.59768246 210.46279332 418.21705283 209.9354066 425.50923634 209.3719368 C424.74107357 204.92517503 423.12452568 201.58491904 420.82173634 197.7469368 C420.09167598 196.50136643 419.36251865 195.25526637 418.63423634 194.00865555 C418.27329884 193.39425613 417.91236134 192.77985672 417.54048634 192.14683914 C415.58181242 188.77573134 413.7417698 185.34081412 411.89595509 181.90709305 C410.9685343 180.2116111 410.01235203 178.53155992 409.02876759 176.86803055 C408.56857227 176.08556961 408.10837696 175.30310867 407.63423634 174.4969368 C407.22431446 173.81888992 406.81439259 173.14084305 406.39204884 172.4422493 C405.28348967 169.8425309 405.09536015 168.1711639 405.50923634 165.3719368 C407.08345509 163.56334305 407.08345509 163.56334305 409.19673634 161.9344368 C414.93568775 157.25185875 419.92417627 152.54308113 420.79976368 144.8040657 C420.84904425 141.86789736 420.88053783 138.93354889 420.88423634 135.9969368 C420.92097462 134.47326492 420.92097462 134.47326492 420.95845509 132.9188118 C420.9901004 124.79651389 419.46413712 120.82419712 414.14204884 114.6063118 C413.31447071 113.78646805 412.48689259 112.9666243 411.63423634 112.1219368 C410.81181446 111.29178055 409.98939259 110.4616243 409.14204884 109.6063118 C402.29728777 103.79740478 396.30852386 103.96650409 387.67329884 104.07896805 C386.57848194 104.08198929 385.48366505 104.08501053 384.35567188 104.08812332 C380.28176359 104.1037716 376.20799009 104.14565549 372.13423634 104.1844368 C363.01798634 104.2463118 353.90173634 104.3081868 344.50923634 104.3719368 Z M439.50923634 104.3719368 C438.64380301 107.8336701 438.38646616 110.28601772 438.39400196 113.79454422 C438.39460621 114.8972818 438.39521046 116.00001938 438.39583302 117.13617325 C438.40231861 118.34190491 438.40880421 119.54763657 438.41548634 120.78990555 C438.41907154 122.06222534 438.42265675 123.33454514 438.42635059 124.64542007 C438.48267699 140.52341938 438.73074859 156.40008852 438.97279835 172.2761116 C439.0346977 176.367275 439.09410724 180.45847462 439.15376759 184.54967117 C439.26991143 192.49046241 439.38866606 200.43121154 439.50923634 208.3719368 C442.08773537 209.66118632 443.93870656 209.49898985 446.82588673 209.50133133 C448.49386059 209.50605957 448.49386059 209.50605957 450.19553089 209.51088333 C451.40378025 209.5088591 452.61202961 209.50683487 453.85689259 209.5047493 C455.09789219 209.50570602 456.33889179 209.50666275 457.61749744 209.50764847 C460.25128597 209.50833037 462.8849824 209.50697523 465.51875782 209.50230789 C468.20823345 209.49777115 470.89764167 209.49771694 473.5871172 209.50230789 C477.46872932 209.50851885 481.35027768 209.5077257 485.23189259 209.5047493 C486.42597233 209.50677353 487.62005207 209.50879776 488.85031605 209.51088333 C495.15502344 209.49335898 501.25892037 209.20930368 507.50923634 208.3719368 C507.53607621 205.39271086 507.55599671 202.41372385 507.57173634 199.4344368 C507.5843047 198.15923172 507.5843047 198.15923172 507.59712696 196.85826492 C507.60196095 195.64493484 507.60196095 195.64493484 507.60689259 194.40709305 C507.61474781 193.28379593 507.61474781 193.28379593 507.62276173 192.13780594 C507.70265386 190.34525941 507.70265386 190.34525941 506.50923634 189.3719368 C505.03569286 189.27889662 503.55773043 189.25447415 502.08125782 189.25841141 C501.14035801 189.25848694 500.1994582 189.25856247 499.23004627 189.25864029 C498.20713993 189.26380157 497.18423359 189.26896286 496.13033009 189.27428055 C495.08853092 189.2756955 494.04673176 189.27711044 492.97336292 189.27856827 C489.6311254 189.284186 486.28895377 189.2967415 482.94673634 189.3094368 C480.68697168 189.31444951 478.42720597 189.31901282 476.16743946 189.32310867 C470.61465899 189.33331224 465.06202182 189.35288416 459.50923634 189.3719368 C459.50923634 181.7819368 459.50923634 174.1919368 459.50923634 166.3719368 C462.74607227 166.38353836 465.98290821 166.39513992 469.31783009 166.40709305 C472.4386787 166.41488267 475.55952624 166.42095997 478.68037891 166.42686844 C480.85616506 166.43190987 483.0319478 166.43874287 485.20772266 166.44737625 C488.327767 166.45945018 491.44776672 166.46516685 494.56783009 166.46959305 C495.54698887 166.47475433 496.52614765 166.47991562 497.53497791 166.48523331 C498.43583622 166.48530884 499.33669453 166.48538437 500.26485157 166.48546219 C501.06205112 166.4876828 501.85925068 166.48990341 502.6806078 166.49219131 C504.52845915 166.57244135 504.52845915 166.57244135 505.50923634 165.3719368 C505.60760844 164.04150055 505.64002226 162.70600335 505.64204884 161.3719368 C505.6433379 160.5675618 505.64462696 159.7631868 505.64595509 158.9344368 C505.6420879 158.0888118 505.63822071 157.2431868 505.63423634 156.3719368 C505.63810352 155.5263118 505.64197071 154.6806868 505.64595509 153.8094368 C505.64466602 153.0050618 505.64337696 152.2006868 505.64204884 151.3719368 C505.64035694 150.2581868 505.64035694 150.2581868 505.63863087 149.1219368 C505.69865849 147.34367868 505.69865849 147.34367868 504.50923634 146.3719368 C503.12763519 146.2791535 501.74135596 146.25446637 500.35664845 146.25841141 C499.47581089 146.25848694 498.59497334 146.25856247 497.68744373 146.25864029 C496.25151623 146.26638222 496.25151623 146.26638222 494.78658009 146.27428055 C493.32376354 146.27640297 493.32376354 146.27640297 491.83139515 146.27856827 C488.70314491 146.28418547 485.5749651 146.29674087 482.44673634 146.3094368 C480.33150299 146.31444958 478.21626853 146.31901287 476.10103321 146.32310867 C470.90371833 146.33331149 465.70655658 146.35288349 460.50923634 146.3719368 C460.50923634 139.1119368 460.50923634 131.8519368 460.50923634 124.3719368 C483.77423634 123.8769368 483.77423634 123.8769368 507.50923634 123.3719368 C507.50923634 117.1019368 507.50923634 110.8319368 507.50923634 104.3719368 C485.06923634 104.3719368 462.62923634 104.3719368 439.50923634 104.3719368 Z " fill="#908F8F" transform="translate(115.4907636642456,-0.3719367980957031)"/>
<path d="M0 0 C1.03705078 -0.020625 2.07410156 -0.04125 3.14257812 -0.0625 C12.73727614 -0.11179838 12.73727614 -0.11179838 16.5625 3.25 C18.8074848 6.6174772 18.82652776 7.79796674 18.86889648 11.74365234 C18.88488388 12.86847015 18.90087128 13.99328796 18.91734314 15.15219116 C18.92270584 16.36782745 18.92806854 17.58346375 18.93359375 18.8359375 C18.94713646 20.70954453 18.94713646 20.70954453 18.96095276 22.6210022 C18.97547346 25.26571058 18.98514157 27.90998646 18.98803711 30.5546875 C18.99341874 33.93668547 19.0310887 37.31748769 19.07678127 40.69914818 C19.1137541 43.93217345 19.1150682 47.16522921 19.12109375 50.3984375 C19.14062607 51.61002533 19.16015839 52.82161316 19.18028259 54.06991577 C19.13572518 62.36246828 19.13572518 62.36246828 16.45019531 66.52050781 C12.94622017 68.61910097 10.87141387 68.84203897 6.80078125 68.7734375 C5.51751953 68.76183594 4.23425781 68.75023437 2.91210938 68.73828125 C1.56640313 68.70063225 0.22070003 68.66287057 -1.125 68.625 C-2.48239691 68.60847996 -3.83982215 68.59413522 -5.19726562 68.58203125 C-15.07191558 68.43279221 -15.07191558 68.43279221 -17.4375 67.25 C-17.4375 66.59 -17.4375 65.93 -17.4375 65.25 C-18.4275 64.92 -19.4175 64.59 -20.4375 64.25 C-21.71617358 61.69265284 -21.59962714 59.82514512 -21.64624023 56.96166992 C-21.66553085 55.85679733 -21.68482147 54.75192474 -21.70469666 53.61357117 C-21.76229726 48.55841213 -21.81170559 43.50339738 -21.8425293 38.44799805 C-21.86033828 35.77884598 -21.8982485 33.11217329 -21.94506836 30.44311523 C-22.01188021 26.60107692 -22.03949902 22.76050512 -22.05859375 18.91796875 C-22.08642441 17.72511765 -22.11425507 16.53226654 -22.14292908 15.30326843 C-22.12295175 7.2797415 -22.12295175 7.2797415 -20.20022583 4.39126587 C-14.2991694 -0.82127014 -7.38503787 0.03658223 0 0 Z " fill="#8F8D8D" transform="translate(405.4375,121.75)"/>
<path d="M0 0 C2.03731554 -0.01715075 4.07298135 -0.06100901 6.10986328 -0.10522461 C7.39763672 -0.11360352 8.68541016 -0.12198242 10.01220703 -0.13061523 C11.7857959 -0.15248901 11.7857959 -0.15248901 13.59521484 -0.17480469 C17.44108078 0.38758455 19.06401341 1.60057205 21.80908203 4.29516602 C24.13742988 8.95186171 23.35310474 15.24101955 22.80908203 20.29516602 C21.39922666 22.90110808 20.33407411 23.63236635 17.80908203 25.29516602 C17.47908203 25.62516602 17.14908203 25.95516602 16.80908203 26.29516602 C14.66349376 26.38292207 12.51503782 26.40211821 10.36767578 26.39282227 C9.0625 26.38959961 7.75732422 26.38637695 6.41259766 26.38305664 C5.02392513 26.37470003 3.63525326 26.36623507 2.24658203 26.35766602 C0.85400547 26.35265268 -0.53857278 26.34808948 -1.93115234 26.34399414 C-5.35111667 26.33216035 -8.77099641 26.31567482 -12.19091797 26.29516602 C-13.46229571 23.75241053 -13.32034297 21.94708401 -13.32373047 19.10375977 C-13.32501953 18.07702148 -13.32630859 17.0502832 -13.32763672 15.99243164 C-13.32376953 14.91670898 -13.31990234 13.84098633 -13.31591797 12.73266602 C-13.31978516 11.65307617 -13.32365234 10.57348633 -13.32763672 9.46118164 C-13.32634766 8.43573242 -13.32505859 7.4102832 -13.32373047 6.35375977 C-13.32260254 5.40815186 -13.32147461 4.46254395 -13.3203125 3.48828125 C-12.98624477 -2.17385167 -4.30314444 0.02525199 0 0 Z " fill="#8C8A8A" transform="translate(493.19091796875,122.704833984375)"/>
<path d="M0 0 C0.33 0 0.66 0 1 0 C1 6.93 1 13.86 1 21 C16.18 21 31.36 21 47 21 C47.94991032 23.84973096 48.07639826 25.2803269 47.9140625 28.1953125 C47.87023437 28.99324219 47.82640625 29.79117188 47.78125 30.61328125 C47.7296875 31.44214844 47.678125 32.27101562 47.625 33.125 C47.58117187 33.96160156 47.53734375 34.79820312 47.4921875 35.66015625 C47.12985424 41.87014576 47.12985424 41.87014576 46 43 C44.58774954 43.0928726 43.17091066 43.11746772 41.75561523 43.11352539 C40.85475693 43.11344986 39.95389862 43.11337433 39.02574158 43.11329651 C38.04658279 43.10813522 37.06742401 43.10297394 36.05859375 43.09765625 C35.06118668 43.0962413 34.0637796 43.09482635 33.03614807 43.09336853 C29.83656876 43.08775114 26.63705831 43.07519571 23.4375 43.0625 C21.27408955 43.05748724 19.11067801 43.05292395 16.94726562 43.04882812 C11.63146226 43.03862505 6.31580861 43.01905308 1 43 C1 49.93 1 56.86 1 64 C16.84 64 32.68 64 49 64 C49 71.26 49 78.52 49 86 C45.7 85.67 42.4 85.34 39 85 C39 84.67 39 84.34 39 84 C41.97 84 44.94 84 48 84 C47.505 75.09 47.505 75.09 47 66 C44.97093506 66.00785522 44.97093506 66.00785522 42.90087891 66.01586914 C37.89518899 66.03393198 32.88950197 66.04543674 27.88378906 66.05493164 C25.71483883 66.05996891 23.545892 66.06679891 21.37695312 66.07543945 C18.26431437 66.08753151 15.1517204 66.09323428 12.0390625 66.09765625 C11.065065 66.10281754 10.0910675 66.10797882 9.08755493 66.11329651 C8.18677216 66.11337204 7.28598938 66.11344757 6.35791016 66.11352539 C5.56293121 66.115746 4.76795227 66.11796661 3.94888306 66.12025452 C2 66 2 66 0 65 C0 57.41 0 49.82 0 42 C2.30820508 40.84589746 3.60784276 40.8789703 6.17431641 40.88647461 C7.46542831 40.88658791 7.46542831 40.88658791 8.78262329 40.88670349 C9.71287323 40.89186478 10.64312317 40.89702606 11.6015625 40.90234375 C12.55316254 40.9037587 13.50476257 40.90517365 14.48519897 40.90663147 C17.53183097 40.91223988 20.57839013 40.92479381 23.625 40.9375 C25.68749894 40.94251392 27.74999903 40.94707701 29.8125 40.95117188 C34.87502817 40.96221204 39.93750173 40.97948233 45 41 C45 35.06 45 29.12 45 23 C43.00851929 23.00785522 43.00851929 23.00785522 40.97680664 23.01586914 C36.06991241 23.03391426 31.16302113 23.04543021 26.25610352 23.05493164 C24.12881986 23.05997298 22.00153969 23.06680591 19.87426758 23.07543945 C16.82372174 23.08751379 13.77322155 23.09323014 10.72265625 23.09765625 C9.28672874 23.10539818 9.28672874 23.10539818 7.8217926 23.11329651 C6.94095505 23.11337204 6.06011749 23.11344757 5.15258789 23.11352539 C4.37315323 23.115746 3.59371857 23.11796661 2.79066467 23.12025452 C1 23 1 23 0 22 C-0.08700342 20.36527118 -0.10701063 18.72685945 -0.09765625 17.08984375 C-0.09443359 16.10048828 -0.09121094 15.11113281 -0.08789062 14.09179688 C-0.07951172 13.05087891 -0.07113281 12.00996094 -0.0625 10.9375 C-0.05798828 9.89271484 -0.05347656 8.84792969 -0.04882812 7.77148438 C-0.03699913 5.1809334 -0.02051689 2.59049441 0 0 Z " fill="#6E6869" transform="translate(575,124)"/>
<path d="M0 0 C17.49 0 34.98 0 53 0 C53.66 0.66 54.32 1.32 55 2 C37.18 2 19.36 2 1 2 C1.08378906 8.58582031 1.16757812 15.17164062 1.25390625 21.95703125 C1.30465824 26.14517685 1.35507574 30.33332119 1.40429688 34.52148438 C1.48234482 41.15979455 1.56158781 47.79807453 1.64819336 54.4362793 C1.71798842 59.79194268 1.78221884 65.14764727 1.84269524 70.50342369 C1.86665236 72.54022301 1.89256796 74.57700033 1.92053413 76.61374855 C2.18793876 96.26050207 2.18793876 96.26050207 1 106 C4.96 106 8.92 106 13 106 C12.01 106.99 12.01 106.99 11 108 C7.04 108 3.08 108 -1 108 C-0.67 72.36 -0.34 36.72 0 0 Z " fill="#756F70" transform="translate(459,102)"/>
<path d="M0 0 C0.66 0 1.32 0 2 0 C5 5.75 5 5.75 5 8 C5.763125 8.28875 6.52625 8.5775 7.3125 8.875 C10 10 10 10 13 12 C13 12.66 13 13.32 13 14 C11.6078125 14.6496875 11.6078125 14.6496875 10.1875 15.3125 C5.47517844 17.80725847 3.61601229 20.39083548 1 25 C-1.7824349 23.60878255 -2.55210065 21.69835788 -4 19 C-4 18.34 -4 17.68 -4 17 C-4.78375 16.690625 -5.5675 16.38125 -6.375 16.0625 C-9 15 -9 15 -11 14 C-11 13.01 -11 12.02 -11 11 C-10.113125 10.67 -9.22625 10.34 -8.3125 10 C-4.45956616 7.67370032 -3.1719744 5.51815264 -1.078125 1.64453125 C-0.72234375 1.10183594 -0.3665625 0.55914062 0 0 Z " fill="#817E7D" transform="translate(770,273)"/>
<path d="M0 0 C1.48831242 0.00667405 2.97660807 0.01863442 4.46484375 0.03515625 C5.22345703 0.03966797 5.98207031 0.04417969 6.76367188 0.04882812 C8.64326246 0.06064945 10.52281274 0.07858547 12.40234375 0.09765625 C12.07234375 0.75765625 11.74234375 1.41765625 11.40234375 2.09765625 C6.78234375 2.09765625 2.16234375 2.09765625 -2.59765625 2.09765625 C-2.59765625 14.96765625 -2.59765625 27.83765625 -2.59765625 41.09765625 C-3.25765625 41.09765625 -3.91765625 41.09765625 -4.59765625 41.09765625 C-4.6223033 35.41935547 -4.64049087 29.74108556 -4.65258789 24.06274414 C-4.65762881 22.1294704 -4.66446144 20.19620049 -4.6730957 18.26293945 C-4.6851719 15.49038753 -4.69088682 12.71788584 -4.6953125 9.9453125 C-4.70047379 9.07552261 -4.70563507 8.20573273 -4.71095276 7.30958557 C-4.7111481 5.23859811 -4.65973793 3.16771301 -4.59765625 1.09765625 C-3.59765625 0.09765625 -3.59765625 0.09765625 0 0 Z " fill="#766F70" transform="translate(484.59765625,167.90234375)"/>
<path d="M0 0 C4.62 0 9.24 0 14 0 C14.94991032 2.84973096 15.07639826 4.2803269 14.9140625 7.1953125 C14.87023437 7.99324219 14.82640625 8.79117188 14.78125 9.61328125 C14.7296875 10.44214844 14.678125 11.27101562 14.625 12.125 C14.58117187 12.96160156 14.53734375 13.79820312 14.4921875 14.66015625 C14.12985424 20.87014576 14.12985424 20.87014576 13 22 C10.1883662 22.08861992 7.40141745 22.11522355 4.58984375 22.09765625 C3.74780899 22.0962413 2.90577423 22.09482635 2.03822327 22.09336853 C-0.66205335 22.08775263 -3.36224828 22.07519748 -6.0625 22.0625 C-7.88867068 22.05748705 -9.71484266 22.05292379 -11.54101562 22.04882812 C-16.02737542 22.03777804 -20.51367384 22.02050279 -25 22 C-25 21.67 -25 21.34 -25 21 C-12.79 20.67 -0.58 20.34 12 20 C12 14.06 12 8.12 12 2 C8.04 1.67 4.08 1.34 0 1 C0 0.67 0 0.34 0 0 Z " fill="#7E7978" transform="translate(608,145)"/>
<path d="M0 0 C0.33 0 0.66 0 1 0 C1.01213028 1.1484565 1.01213028 1.1484565 1.02450562 2.32011414 C1.10252708 9.54433234 1.18984032 16.76835077 1.28752708 23.99232769 C1.33741983 27.70602895 1.38375024 31.41970273 1.421875 35.13354492 C1.45881687 38.71928456 1.50520049 42.30479034 1.55806351 45.89032936 C1.57656029 47.25657857 1.5916856 48.62287782 1.60334396 49.9892025 C1.62028657 51.90655783 1.65045399 53.82378237 1.68115234 55.7409668 C1.69447601 56.83128708 1.70779968 57.92160736 1.7215271 59.04496765 C2.00505711 62.05366386 2.73233869 64.27238679 4 67 C2.68 66.34 1.36 65.68 0 65 C0 43.55 0 22.1 0 0 Z " fill="#696463" transform="translate(363,126)"/>
<path d="M0 0 C0.88149216 -0.00960754 1.76298431 -0.01921509 2.67118835 -0.02911377 C4.11169304 -0.03548859 4.11169304 -0.03548859 5.58129883 -0.04199219 C6.56447586 -0.04769226 7.54765289 -0.05339233 8.56062317 -0.05926514 C10.64798908 -0.06873385 12.73537006 -0.07525651 14.82275391 -0.07910156 C18.00751182 -0.08877359 21.19161537 -0.11976555 24.3762207 -0.15136719 C26.40290957 -0.15790034 28.42960307 -0.16314958 30.45629883 -0.16699219 C31.88162178 -0.18551239 31.88162178 -0.18551239 33.33573914 -0.20440674 C38.58280573 -0.18685654 42.33766482 0.15996696 46.85083008 3.16113281 C47.34583008 4.15113281 47.34583008 4.15113281 47.85083008 5.16113281 C47.08770508 4.85175781 46.32458008 4.54238281 45.53833008 4.22363281 C40.85416768 2.37175465 36.94695019 2.00058835 31.96411133 1.99316406 C31.18827194 1.98983566 30.41243256 1.98650726 29.61308289 1.983078 C27.9697631 1.97801592 26.32643304 1.97566946 24.68310547 1.97583008 C22.19000865 1.97365608 19.69736351 1.95552773 17.2043457 1.93652344 C15.60343575 1.93358672 14.0025237 1.93160379 12.40161133 1.93066406 C11.66485672 1.92347855 10.92810211 1.91629303 10.16902161 1.90888977 C5.09821869 1.93084877 0.73104712 2.77321903 -4.14916992 4.16113281 C-4.47916992 3.17113281 -4.80916992 2.18113281 -5.14916992 1.16113281 C-3.6041789 -0.38385821 -2.15103859 0.01885156 0 0 Z " fill="#777475" transform="translate(383.149169921875,101.8388671875)"/>
<path d="M0 0 C1.04449911 3.13349732 0.93423645 3.98968256 0 7 C-1.98 7.33 -3.96 7.66 -6 8 C-4.02 5.36 -2.04 2.72 0 0 Z M-8 9 C-8 12 -8 12 -9 14 C-9.66 14 -10.32 14 -11 14 C-11 15.65 -11 17.3 -11 19 C-11.99 18.34 -12.98 17.68 -14 17 C-13.65120368 13.74456771 -12.97866739 12.98126893 -10.4375 10.75 C-9.633125 10.1725 -8.82875 9.595 -8 9 Z " fill="#9B9698" transform="translate(535,152)"/>
<path d="M0 0 C2 2 2 2 2.125 5.625 C2.08375 6.73875 2.0425 7.8525 2 9 C5.96 9 9.92 9 14 9 C12 11 12 11 9.1796875 11.1953125 C8.08914063 11.17210937 6.99859375 11.14890625 5.875 11.125 C4.77929688 11.10695312 3.68359375 11.08890625 2.5546875 11.0703125 C1.71164062 11.04710937 0.86859375 11.02390625 0 11 C0 7.37 0 3.74 0 0 Z " fill="#7A7676" transform="translate(458,199)"/>
<path d="M0 0 C0.99 0.66 1.98 1.32 3 2 C3 3.32 3 4.64 3 6 C3.66 6.33 4.32 6.66 5 7 C5 10 5 10 3 12.1875 C2.01 13.0846875 2.01 13.0846875 1 14 C0.01 13.01 -0.98 12.02 -2 11 C-1.360625 10.690625 -0.72125 10.38125 -0.0625 10.0625 C1.93610821 9.1654837 1.93610821 9.1654837 3 8 C1.35 8 -0.3 8 -2 8 C-1.01 7.34 -0.02 6.68 1 6 C0.67 4.02 0.34 2.04 0 0 Z " fill="#8A8686" transform="translate(264,122)"/>
<path d="M0 0 C0.99 0 1.98 0 3 0 C3 0.99 3 1.98 3 3 C1.35546875 4.28125 1.35546875 4.28125 -0.8125 5.5 C-3.61180386 7.09086121 -5.81249958 8.62618251 -8 11 C-8.66 10.67 -9.32 10.34 -10 10 C-9.525625 9.566875 -9.05125 9.13375 -8.5625 8.6875 C-6.76313043 6.97690387 -6.76313043 6.97690387 -6 4 C-3.5 2.375 -3.5 2.375 -1 1 C-0.67 0.67 -0.34 0.34 0 0 Z " fill="#979494" transform="translate(93,7)"/>
<path d="M0 0 C7.92 0 15.84 0 24 0 C24 0.99 24 1.98 24 3 C16.08 2.67 8.16 2.34 0 2 C0 1.34 0 0.68 0 0 Z " fill="#9A9594" transform="translate(487,145)"/>
<path d="M0 0 C0.66 0 1.32 0 2 0 C2.02694851 1.95825873 2.04637218 3.91662226 2.0625 5.875 C2.07410156 6.96554687 2.08570313 8.05609375 2.09765625 9.1796875 C2 12 2 12 1 14 C0.34 14 -0.32 14 -1 14 C-0.67 9.38 -0.34 4.76 0 0 Z " fill="#9B9698" transform="translate(21,286)"/>
<path d="M0 0 C0.66 0 1.32 0 2 0 C2.625 2.875 2.625 2.875 3 6 C2.34 6.66 1.68 7.32 1 8 C1.7734375 9.1446875 1.7734375 9.1446875 2.5625 10.3125 C3.036875 11.199375 3.51125 12.08625 4 13 C3.67 13.99 3.34 14.98 3 16 C-0.22889075 11.05576103 -1.5964336 8.0836227 -1 2 C-0.67 1.34 -0.34 0.68 0 0 Z " fill="#888485" transform="translate(524,166)"/>
<path d="M0 0 C0.66 0 1.32 0 2 0 C2 3.3 2 6.6 2 10 C1.34 10 0.68 10 0 10 C-0.33 10.99 -0.66 11.98 -1 13 C-1.66 12.34 -2.32 11.68 -3 11 C-3 9 -3 9 -1 7 C-0.59952556 4.67724823 -0.2602896 2.34260643 0 0 Z " fill="#9A9595" transform="translate(771,138)"/>
<path d="M0 0 C0.66 1.32 1.32 2.64 2 4 C1.01 4.495 1.01 4.495 0 5 C0.309375 6.1446875 0.309375 6.1446875 0.625 7.3125 C1 10 1 10 -1 13 C-1.99 12.67 -2.98 12.34 -4 12 C-3.67 11.01 -3.34 10.02 -3 9 C-2.34 9 -1.68 9 -1 9 C-1.020625 7.700625 -1.04125 6.40125 -1.0625 5.0625 C-1.08399454 3.70834367 -1.07148199 2.35243917 -1 1 C-0.67 0.67 -0.34 0.34 0 0 Z " fill="#9B9898" transform="translate(52,90)"/>
<path d="M0 0 C0.66 0.99 1.32 1.98 2 3 C2.53625 3.680625 3.0725 4.36125 3.625 5.0625 C5 7 5 7 5 9 C5.99 9.33 6.98 9.66 8 10 C7.01 10.33 6.02 10.66 5 11 C4.566875 10.505 4.13375 10.01 3.6875 9.5 C2.00259517 7.66781808 2.00259517 7.66781808 -1 8 C-1 7.34 -1 6.68 -1 6 C-0.34 6 0.32 6 1 6 C0.67 4.02 0.34 2.04 0 0 Z " fill="#8F8080" transform="translate(187,146)"/>
<path d="M0 0 C0.74886475 0.00523682 1.49772949 0.01047363 2.26928711 0.01586914 C3.07817383 0.0190918 3.88706055 0.02231445 4.72045898 0.02563477 C5.5705957 0.03401367 6.42073242 0.04239258 7.29663086 0.05102539 C8.15063477 0.05553711 9.00463867 0.06004883 9.88452148 0.06469727 C12.00108749 0.07652166 14.11761771 0.0944577 16.23413086 0.11352539 C16.23413086 0.44352539 16.23413086 0.77352539 16.23413086 1.11352539 C15.18612305 1.24629883 14.13811523 1.37907227 13.05834961 1.51586914 C11.67942308 1.69409774 10.30051793 1.8724918 8.92163086 2.05102539 C7.88619141 2.18154297 7.88619141 2.18154297 6.82983398 2.31469727 C3.83270798 2.70562674 1.10962967 3.15502579 -1.76586914 4.11352539 C-2.09586914 3.12352539 -2.42586914 2.13352539 -2.76586914 1.11352539 C-1.76586914 0.11352539 -1.76586914 0.11352539 0 0 Z " fill="#7F7A7B" transform="translate(380.765869140625,101.886474609375)"/>
<path d="M0 0 C0.99386719 0.10183594 1.98773438 0.20367187 3.01171875 0.30859375 C3.77097656 0.39238281 4.53023438 0.47617188 5.3125 0.5625 C4.9825 1.2225 4.6525 1.8825 4.3125 2.5625 C2.52116022 2.61641993 0.72936101 2.65525571 -1.0625 2.6875 C-2.06023437 2.71070312 -3.05796875 2.73390625 -4.0859375 2.7578125 C-6.6875 2.5625 -6.6875 2.5625 -8.6875 0.5625 C-5.3763987 -0.54120043 -3.44001051 -0.36423641 0 0 Z " fill="#9B9698" transform="translate(393.6875,99.4375)"/>
<path d="M0 0 C0.66 0 1.32 0 2 0 C1.07085074 2.78744777 0.00715142 4.73240419 -1.5625 7.1875 C-2.01753906 7.90292969 -2.47257813 8.61835938 -2.94140625 9.35546875 C-3.46541016 10.16951172 -3.46541016 10.16951172 -4 11 C-5.32 10.67 -6.64 10.34 -8 10 C-7.236875 9.278125 -6.47375 8.55625 -5.6875 7.8125 C-2.955914 5.16073022 -2.955914 5.16073022 -1.3125 2.1875 C-0.879375 1.465625 -0.44625 0.74375 0 0 Z " fill="#777674" transform="translate(770,273)"/>
<path d="M0 0 C0 4.38968456 -2.12805101 5.76905739 -5 9 C-6.32 8.34 -7.64 7.68 -9 7 C-8.1646875 6.38125 -8.1646875 6.38125 -7.3125 5.75 C-4.83804044 3.87743601 -2.4164771 1.94660656 0 0 Z " fill="#898787" transform="translate(255,202)"/>
<path d="M0 0 C0.33 0 0.66 0 1 0 C1.08142927 1.7492214 1.13938541 3.49954542 1.1875 5.25 C1.23970703 6.71179688 1.23970703 6.71179688 1.29296875 8.203125 C0.96075202 11.37468742 0.11327721 12.67040307 -2 15 C-1.85816304 13.24967156 -1.71136571 11.49974466 -1.5625 9.75 C-1.48128906 8.77546875 -1.40007813 7.8009375 -1.31640625 6.796875 C-1.04925416 4.43538247 -0.64628032 2.28098935 0 0 Z " fill="#9E9595" transform="translate(766,183)"/>
<path d="M0 0 C0.33 0 0.66 0 1 0 C1.19705341 10.04972376 1.19705341 10.04972376 0 14 C-0.66 14.66 -1.32 15.32 -2 16 C-2.20674944 10.21101581 -1.59162079 5.57067277 0 0 Z " fill="#9C9798" transform="translate(56,61)"/>
<path d="M0 0 C5.75 3.75 5.75 3.75 8 6 C8 6.99 8 7.98 8 9 C6 9 6 9 3.4375 6.75 C1.23284071 4.26269209 0.35596045 3.20364405 0 0 Z " fill="#9B9796" transform="translate(753,19)"/>
<path d="M0 0 C0.33 0 0.66 0 1 0 C1 1.65 1 3.3 1 5 C1.66 5.33 2.32 5.66 3 6 C2.67 6.66 2.34 7.32 2 8 C1.34 8 0.68 8 0 8 C-0.66 9.32 -1.32 10.64 -2 12 C-2.21278058 7.53160785 -1.59138085 4.17737474 0 0 Z " fill="#9B9899" transform="translate(21,301)"/>
<path d="M0 0 C0.33 0.99 0.66 1.98 1 3 C0.360625 3.268125 -0.27875 3.53625 -0.9375 3.8125 C-3.33131686 4.88667752 -3.33131686 4.88667752 -4 8 C-6.0625 8.6875 -6.0625 8.6875 -8 9 C-7.24172908 7.82512964 -6.46792245 6.66027408 -5.6875 5.5 C-5.25824219 4.8503125 -4.82898438 4.200625 -4.38671875 3.53125 C-3.70029297 2.77328125 -3.70029297 2.77328125 -3 2 C-2.01 2 -1.02 2 0 2 C0 1.34 0 0.68 0 0 Z " fill="#989595" transform="translate(259,200)"/>
<path d="M0 0 C2.13586678 3.20380017 2.23132175 4.01939967 2.125 7.6875 C2.10695313 8.49574219 2.08890625 9.30398437 2.0703125 10.13671875 C2.04710937 10.75160156 2.02390625 11.36648437 2 12 C1.67 11.34 1.34 10.68 1 10 C0.34 10 -0.32 10 -1 10 C-0.67 6.7 -0.34 3.4 0 0 Z " fill="#A87573" transform="translate(553,134)"/>
<path d="M0 0 C1.65 0.33 3.3 0.66 5 1 C1.81237635 3.12508244 -0.26512223 3.5020163 -4 4 C-4 4.66 -4 5.32 -4 6 C-4.66 6 -5.32 6 -6 6 C-6 5.01 -6 4.02 -6 3 C-4.02 2.67 -2.04 2.34 0 2 C0 1.34 0 0.68 0 0 Z " fill="#7F757A" transform="translate(189,180)"/>
<path d="M0 0 C3.465 1.98 3.465 1.98 7 4 C7 4.66 7 5.32 7 6 C7.99 6.33 8.98 6.66 10 7 C7.36 6.67 4.72 6.34 2 6 C1.34 4.02 0.68 2.04 0 0 Z " fill="#9B9795" transform="translate(188,153)"/>
<path d="M0 0 C0.66 0.66 1.32 1.32 2 2 C1.7578125 4.3828125 1.7578125 4.3828125 1.125 7.125 C0.92132813 8.03507813 0.71765625 8.94515625 0.5078125 9.8828125 C0.34023438 10.58148438 0.17265625 11.28015625 0 12 C-0.99 11.34 -1.98 10.68 -3 10 C-2.67 9.01 -2.34 8.02 -2 7 C-1.34 7 -0.68 7 0 7 C0 4.69 0 2.38 0 0 Z " fill="#A09C9E" transform="translate(42,154)"/>
<path d="M0 0 C2.31 0.33 4.62 0.66 7 1 C6.67 1.99 6.34 2.98 6 4 C4.68 4 3.36 4 2 4 C2 3.34 2 2.68 2 2 C1.34 2 0.68 2 0 2 C0 1.34 0 0.68 0 0 Z " fill="#999597" transform="translate(725,1)"/>
<path d="M0 0 C0.66 0 1.32 0 2 0 C2.33 1.65 2.66 3.3 3 5 C2.01 5 1.02 5 0 5 C0 6.65 0 8.3 0 10 C-0.33 10 -0.66 10 -1 10 C-1.125 2.25 -1.125 2.25 0 0 Z " fill="#9C999A" transform="translate(756,249)"/>
<path d="M0 0 C0.66 0 1.32 0 2 0 C3.41687119 4.25061356 2.19320039 6.71851625 1 11 C0.67 11 0.34 11 0 11 C0 7.37 0 3.74 0 0 Z " fill="#A09892" transform="translate(552,144)"/>
<path d="M0 0 C0.75 1.75 0.75 1.75 1 4 C-0.9375 6.25 -0.9375 6.25 -3 8 C-3.33 7.34 -3.66 6.68 -4 6 C-2.68 4.02 -1.36 2.04 0 0 Z " fill="#9A9695" transform="translate(189,114)"/>
</svg>
